<svg version="1.1" id="Слой_1" xmlns="http://www.w3.org/2000/svg" xmlns:xlink="http://www.w3.org/1999/xlink" x="0px" y="0px"
	 viewBox="0 0 7 5.5" style="enable-background:new 0 0 7 5.5;" xml:space="preserve" width="9px" height="7px" fill="#ffffff">
<path d="M0.1,3.1C0,3,0,2.9,0,2.9s0-0.1,0.1-0.2l0.4-0.4c0.1-0.1,0.3-0.1,0.4,0l0,0l1.5,1.6C2.4,4,2.5,4,2.5,3.9l3.6-3.7h0l0,0
	c0.1-0.1,0.3-0.1,0.4,0l0.4,0.4C7,0.7,7,0.8,6.9,1l0,0L2.6,5.4C2.6,5.5,2.5,5.5,2.4,5.5s-0.1,0-0.2-0.1L0.1,3.1
	C0.1,3.2,0.1,3.1,0.1,3.1z"/>
</svg>
