<svg version="1.1" id="Слой_1" xmlns="http://www.w3.org/2000/svg" xmlns:xlink="http://www.w3.org/1999/xlink" x="0px" y="0px"
	 viewBox="0 0 31 30.5" style="enable-background:new 0 0 31 30.5;" xml:space="preserve" width="34px" height="34px" fill="#9013fe">
<g>
	<g>
		<path d="M29.9,28.3H1.1c-0.6,0-1.1,0.5-1.1,1.1c0,0.6,0.5,1.1,1.1,1.1h28.9c0.6,0,1.1-0.5,1.1-1.1C31,28.8,30.5,28.3,29.9,28.3z"
			/>
		<path d="M0,18.7l0,5.1c0,0.3,0.1,0.6,0.3,0.8S0.8,25,1.1,25l5.1,0c0.3,0,0.6-0.1,0.8-0.3L24.6,7c0.4-0.4,0.4-1.1,0-1.6l-5.1-5.1
			c-0.4-0.4-1.1-0.4-1.6,0l-3.5,3.6L0.3,18C0.1,18.2,0,18.4,0,18.7z M18.8,2.6l3.6,3.6l-2,2l-3.6-3.6C16.8,4.6,18.8,2.6,18.8,2.6z
			 M2.2,19.2l13-13l3.6,3.6l-13,13l-3.6,0C2.2,22.8,2.2,19.2,2.2,19.2z"/>
	</g>
</g>
</svg>
